<svg width="936" height="281" viewBox="0 0 936 281" fill="none" xmlns="http://www.w3.org/2000/svg">
<path d="M866.232 184.502L865.632 189.602C864.132 203.402 848.232 211.502 822.732 211.502C791.232 211.502 778.332 198.902 778.332 171.902V65.1016H850.332V129.602C850.332 137.102 852.132 139.802 856.632 139.802C861.732 139.802 863.832 136.202 863.832 126.302V65.1016H935.832V199.202C935.832 248.102 905.5 280.202 846.132 280.202H495.5V224.602H835.932C862.5 224.602 873.732 208.802 873.732 189.602V184.502H866.232Z" fill="white"/>
<path d="M759.353 157.203H769.853V215.103H727.553C686.453 215.103 677.453 205.803 677.453 163.803V117.303H663.953V65.1032H677.453V39.9032L750.953 19.5V65.1032H769.853V117.303H750.953V147.603C750.953 155.103 752.753 157.203 759.353 157.203Z" fill="white"/>
<path d="M495.359 215.1V0H568.859V107.1H575.459L581.159 91.2C588.659 70.5 603.059 62.1 623.759 62.1C645.959 62.1 655.859 71.7 655.859 94.8V215.1H583.859V151.5C583.859 144 581.759 141.3 576.659 141.3C570.959 141.3 568.859 144.9 568.859 154.8V215.1H495.359Z" fill="white"/>
<path d="M405.273 62.4023C460.473 62.4023 484.773 84.0023 484.773 133.502V199.202C484.773 256.502 458.073 280.202 395.373 280.202H326.373V219.002H385.173C409.473 219.002 422.973 208.802 422.973 189.602V184.502H415.473C415.473 201.002 400.773 210.302 374.973 210.302C335.673 210.302 320.973 188.402 320.973 144.602C320.973 87.3023 346.173 62.4023 405.273 62.4023ZM410.373 154.202V123.302C410.373 117.602 410.973 110.402 404.373 110.402C399.573 110.402 397.473 114.302 397.473 124.802V153.002C397.473 161.402 399.273 164.402 404.073 164.402C408.273 164.402 410.373 161.102 410.373 154.202Z" fill="white"/>
<path d="M241.691 29.7016C241.691 10.8016 254.591 3.60156 276.191 3.60156C298.391 3.60156 310.991 10.8016 310.991 29.7016C310.991 49.5016 298.091 56.1016 276.191 56.1016C254.891 56.1016 241.691 49.5016 241.691 29.7016ZM239.891 215.102V65.1016H311.891V215.102H239.891Z" fill="white"/>
<path d="M227.42 157.2H231.02V215.1H201.62C163.82 215.1 145.52 198.6 145.52 163.8V0H219.02V147.6C219.02 155.1 220.82 157.2 227.42 157.2Z" fill="white"/>
<path d="M0 215.103L0 0.101562H135.9V63.1016H78V86.1016H135.9V140.102H78V215.103H0Z" fill="white"/>
</svg>
