<svg width="1490" height="403" viewBox="0 0 1490 403" fill="none" xmlns="http://www.w3.org/2000/svg">
<path d="M199.942 5.78882L306.283 111.061L372.181 92.7304C387.512 88.4659 403.909 90.4662 417.765 98.2913C431.621 106.116 441.801 119.125 446.066 134.456C450.331 149.787 448.33 166.184 440.505 180.04C432.68 193.896 419.671 204.077 404.34 208.341L338.442 226.672L301.735 371.735C300.871 375.153 299.118 378.281 296.656 380.804C294.193 383.326 291.107 385.153 287.711 386.098L229.906 402.178C226.923 403.01 223.787 403.137 220.746 402.55C217.705 401.963 214.842 400.678 212.382 398.796C209.923 396.914 207.934 394.487 206.572 391.705C205.21 388.924 204.513 385.864 204.536 382.767L205.374 263.686L161.828 275.8L138.086 317.84C135.478 322.459 131.143 325.852 126.033 327.275L68.228 343.354C64.9443 344.266 61.4822 344.323 58.1701 343.521C54.8581 342.719 51.806 341.083 49.3034 338.77C46.8008 336.457 44.9307 333.543 43.8707 330.304C42.8106 327.066 42.5957 323.61 43.2463 320.265L58.4237 242.285L5.15956 183.343C2.87504 180.814 1.27454 177.744 0.509925 174.423C-0.254692 171.102 -0.15806 167.641 0.790654 164.368C1.73937 161.095 3.5087 158.118 5.93075 155.721C8.35279 153.324 11.3472 151.585 14.6299 150.67L72.4352 134.591C77.5454 133.17 83.0105 133.838 87.6284 136.447L129.669 160.189L173.215 148.076L111.007 46.5326C109.389 43.8922 108.406 40.9119 108.135 37.8267C107.865 34.7414 108.315 31.6356 109.449 28.7538C110.584 25.8721 112.372 23.2932 114.673 21.2204C116.975 19.1476 119.726 17.6376 122.71 16.8093L180.515 0.72984C183.912 -0.213806 187.498 -0.242894 190.909 0.645524C194.321 1.53394 197.437 3.3083 199.942 5.78882Z" fill="#F24822"/>
<path d="M1419.8 262.271L1419.2 267.371C1417.7 281.171 1401.8 289.271 1376.3 289.271C1344.8 289.271 1331.9 276.671 1331.9 249.671V142.871H1403.9V207.371C1403.9 214.871 1405.7 217.571 1410.2 217.571C1415.3 217.571 1417.4 213.971 1417.4 204.071V142.871H1489.4V276.971C1489.4 325.871 1459.07 357.971 1399.7 357.971H1049.07V302.371H1389.5C1416.07 302.371 1427.3 286.571 1427.3 267.371V262.271H1419.8Z" fill="#F24822"/>
<path d="M1312.93 234.973H1323.43V292.873H1281.13C1240.03 292.873 1231.03 283.573 1231.03 241.573V195.073H1217.53V142.873H1231.03V117.673L1304.53 97.2695V142.873H1323.43V195.073H1304.53V225.373C1304.53 232.873 1306.33 234.973 1312.93 234.973Z" fill="#F24822"/>
<path d="M1048.93 292.87V77.7695H1122.43V184.87H1129.03L1134.73 168.97C1142.23 148.27 1156.63 139.87 1177.33 139.87C1199.53 139.87 1209.43 149.47 1209.43 172.57V292.87H1137.43V229.27C1137.43 221.77 1135.33 219.07 1130.23 219.07C1124.53 219.07 1122.43 222.67 1122.43 232.57V292.87H1048.93Z" fill="#F24822"/>
<path d="M958.845 140.172C1014.05 140.172 1038.35 161.772 1038.35 211.272V276.972C1038.35 334.272 1011.65 357.972 948.945 357.972H879.945V296.772H938.745C963.045 296.772 976.545 286.572 976.545 267.372V262.272H969.045C969.045 278.772 954.345 288.072 928.545 288.072C889.245 288.072 874.545 266.172 874.545 222.372C874.545 165.072 899.745 140.172 958.845 140.172ZM963.945 231.972V201.072C963.945 195.372 964.545 188.172 957.945 188.172C953.145 188.172 951.045 192.072 951.045 202.572V230.772C951.045 239.172 952.845 242.172 957.645 242.172C961.845 242.172 963.945 238.872 963.945 231.972Z" fill="#F24822"/>
<path d="M795.263 107.471C795.263 88.5711 808.163 81.3711 829.763 81.3711C851.963 81.3711 864.563 88.5711 864.563 107.471C864.563 127.271 851.663 133.871 829.763 133.871C808.463 133.871 795.263 127.271 795.263 107.471ZM793.463 292.871V142.871H865.463V292.871H793.463Z" fill="#F24822"/>
<path d="M780.992 234.97H784.592V292.87H755.192C717.392 292.87 699.092 276.37 699.092 241.57V77.7695H772.592V225.37C772.592 232.87 774.392 234.97 780.992 234.97Z" fill="#F24822"/>
<path d="M553.573 292.873L553.573 77.8711H689.473V140.871H631.573V163.871H689.473V217.871H631.573V292.873H553.573Z" fill="#F24822"/>
</svg>
