<svg width="1490" height="403" viewBox="0 0 1490 403" fill="none" xmlns="http://www.w3.org/2000/svg">
<path d="M199.942 5.78882L306.283 111.061L372.181 92.7304C387.512 88.4659 403.909 90.4662 417.765 98.2913C431.621 106.116 441.801 119.125 446.066 134.456C450.331 149.787 448.33 166.184 440.505 180.04C432.68 193.896 419.671 204.077 404.34 208.341L338.442 226.672L301.735 371.735C300.871 375.153 299.118 378.281 296.656 380.804C294.193 383.326 291.107 385.153 287.711 386.098L229.906 402.178C226.923 403.01 223.787 403.137 220.746 402.55C217.705 401.963 214.842 400.678 212.382 398.796C209.923 396.914 207.934 394.487 206.572 391.705C205.21 388.924 204.513 385.864 204.536 382.767L205.374 263.686L161.828 275.8L138.086 317.84C135.478 322.459 131.143 325.852 126.033 327.275L68.228 343.354C64.9443 344.266 61.4822 344.323 58.1701 343.521C54.8581 342.719 51.806 341.083 49.3034 338.77C46.8008 336.457 44.9307 333.543 43.8707 330.304C42.8106 327.066 42.5957 323.61 43.2463 320.265L58.4237 242.285L5.15956 183.343C2.87504 180.814 1.27454 177.744 0.509925 174.423C-0.254692 171.102 -0.15806 167.641 0.790654 164.368C1.73937 161.095 3.5087 158.118 5.93075 155.721C8.35279 153.324 11.3472 151.585 14.6299 150.67L72.4352 134.591C77.5454 133.17 83.0105 133.838 87.6284 136.447L129.669 160.189L173.215 148.076L111.007 46.5326C109.389 43.8922 108.406 40.9119 108.135 37.8267C107.865 34.7414 108.315 31.6356 109.449 28.7538C110.584 25.8721 112.372 23.2932 114.673 21.2204C116.975 19.1476 119.726 17.6376 122.71 16.8093L180.515 0.72984C183.912 -0.213806 187.498 -0.242894 190.909 0.645524C194.321 1.53394 197.437 3.3083 199.942 5.78882Z" fill="#F24822"/>
<path d="M1419.8 262.17L1419.2 267.27C1417.7 281.07 1401.8 289.17 1376.3 289.17C1344.8 289.17 1331.9 276.57 1331.9 249.57V142.77H1403.9V207.27C1403.9 214.77 1405.7 217.47 1410.2 217.47C1415.3 217.47 1417.4 213.87 1417.4 203.97V142.77H1489.4V276.87C1489.4 325.77 1459.07 357.87 1399.7 357.87H1049.07V302.27H1389.5C1416.07 302.27 1427.3 286.47 1427.3 267.27V262.17H1419.8Z" fill="#F24822"/>
<path d="M1312.93 234.87H1323.43V292.77H1281.13C1240.03 292.77 1231.03 283.47 1231.03 241.47V194.97H1217.53V142.77H1231.03V117.57H1304.53V142.77H1323.43V194.97H1304.53V225.27C1304.53 232.77 1306.33 234.87 1312.93 234.87Z" fill="#F24822"/>
<path d="M1048.93 292.768V77.668H1122.43V184.768H1129.03L1134.73 168.868C1142.23 148.168 1156.63 139.768 1177.33 139.768C1199.53 139.768 1209.43 149.368 1209.43 172.468V292.768H1137.43V229.168C1137.43 221.668 1135.33 218.968 1130.23 218.968C1124.53 218.968 1122.43 222.568 1122.43 232.468V292.768H1048.93Z" fill="#F24822"/>
<path d="M958.845 140.07C1014.05 140.07 1038.35 161.67 1038.35 211.17V276.87C1038.35 334.17 1011.65 357.87 948.945 357.87H879.945V296.67H938.745C963.045 296.67 976.545 286.47 976.545 267.27V262.17H969.045C969.045 278.67 954.345 287.97 928.545 287.97C889.245 287.97 874.545 266.07 874.545 222.27C874.545 164.97 899.745 140.07 958.845 140.07ZM963.945 231.87V200.97C963.945 195.27 964.545 188.07 957.945 188.07C953.145 188.07 951.045 191.97 951.045 202.47V230.67C951.045 239.07 952.845 242.07 957.645 242.07C961.845 242.07 963.945 238.77 963.945 231.87Z" fill="#F24822"/>
<path d="M795.263 107.37C795.263 88.4695 808.163 81.2695 829.763 81.2695C851.963 81.2695 864.563 88.4695 864.563 107.37C864.563 127.17 851.663 133.77 829.763 133.77C808.463 133.77 795.263 127.17 795.263 107.37ZM793.463 292.77V142.77H865.463V292.77H793.463Z" fill="#F24822"/>
<path d="M780.992 234.868H784.592V292.768H755.192C717.392 292.768 699.092 276.268 699.092 241.468V77.668H772.592V225.268C772.592 232.768 774.392 234.868 780.992 234.868Z" fill="#F24822"/>
<path d="M553.573 292.771L553.573 77.7695H689.473V140.77H631.573V163.77H689.473V217.77H631.573V292.771H553.573Z" fill="#F24822"/>
</svg>
